<svg width="1440" height="1024" viewBox="0 0 1440 1024" fill="none" xmlns="http://www.w3.org/2000/svg">
<rect width="1440" height="1024" fill="#E2D7EF"/>
<path fill-rule="evenodd" clip-rule="evenodd" d="M0.0856934 653.921C169.696 808.44 426.336 888.868 618.22 808.247C846.42 712.368 1047.5 750.586 1036.09 894.179C1028.47 990.172 1154.68 1017.93 1219.38 985.614C1280.13 955.281 1384.2 947.465 1440 1013L1439.91 369.079C1384.11 303.544 1280.04 302.342 1219.3 332.675C1154.59 364.986 1028.39 337.233 1036.01 241.24C1047.41 97.6466 846.334 59.4286 618.134 155.307C428.169 235.122 174.737 165.932 5.11426 14.6106L0 10L0.0856934 653.921Z" fill="url(#paint0_linear_302_2259)"/>
<defs>
<linearGradient id="paint0_linear_302_2259" x1="720" y1="10" x2="720" y2="1013" gradientUnits="userSpaceOnUse">
<stop stop-color="#FDFBFF"/>
<stop offset="1" stop-color="white" stop-opacity="0"/>
</linearGradient>
</defs>
</svg>
